<?xml version="1.0" encoding="utf-8"?>
<!-- Generator: Adobe Illustrator 28.2.0, SVG Export Plug-In . SVG Version: 6.00 Build 0)  -->
<svg version="1.1" id="Layer_1" xmlns="http://www.w3.org/2000/svg" xmlns:xlink="http://www.w3.org/1999/xlink" x="0px" y="0px"
	 viewBox="0 0 218 53" style="enable-background:new 0 0 218 53;" xml:space="preserve">
<style type="text/css">
	.st0{display:none;}
	.st1{display:inline;fill:#FF3300;}
	.st2{fill:#F6F5F5;}
	.st3{font-family:'HemiHeadRg-BoldItalic';}
	.st4{font-size:6.2835px;}
	.st5{font-size:5.5805px;}
	.st6{fill:#1F2022;}
</style>
<g class="st0">
	<path class="st1" d="M39.1,9.4c-2.2-1.4-4.7-2.3-7.2-2.8L30.2,0h-1.3h-2.8h-1.3l-1.7,6.5c-2.5,0.5-5,1.5-7.2,2.8L9.9,5.9L9,6.8
		L7.1,8.7L6.2,9.5l3.6,5.8c-1.5,2.1-2.4,4.5-3,6.9L0,23.8V25v2.6v1.2l6.8,1.7c0.4,1.7,1,3.3,1.8,4.9c0.7,1.3,0.6,2.9-0.1,4.1
		l-2.3,3.7l0.9,0.9l1,0.9l6.8-6.5c1.4-1.3,1.7-3.4,0.6-5c-3.4-5.3-2.7-12.4,2.3-17c5.4-5,14.1-5,19.6,0c5,4.5,5.7,11.6,2.3,17
		c-1,1.6-0.8,3.7,0.6,5l6.8,6.5l1-0.9l0.9-0.9l-2.3-3.7c-0.8-1.3-0.8-2.8-0.1-4.1c0.8-1.6,1.4-3.2,1.8-4.9l6.8-1.7v-1.2V25v-1.2
		l-6.8-1.7c-0.5-2.4-1.5-4.7-3-6.9l3.6-5.8L48,8.7l-1.9-1.9l-0.9-0.8L39.1,9.4z"/>
	<path class="st1" d="M31,35.7v-3.6h0c0-0.5,0.2-0.9,0.7-1.1c5.5-2.4,3.6-9.7-1-12c-0.4,1.7-0.1,3.6-0.2,5.4c-1.9,0-3.8,0-5.8,0
		c0.1-1.7,0-3.4,0-5.1c0-0.8-0.9,0.1-1.3,0.3c-2.7,2.3-4.8,7.1-1.8,10c0.6,0.8,2.5,1.4,2.6,2.3c0,0.1,0,0.2,0,0.3v3.6
		c-5.2,1.1-9.4,4.5-11.4,9.1H21c1.6-1.7,4-2.8,6.6-2.8s5,1.1,6.6,2.8h8.1C40.3,40.3,36.1,36.8,31,35.7z"/>
</g>
<g>
	<g>
		<g>
			<path class="st2" d="M46.5,26.4c-0.2,6.9-3.1,12.3-8.9,16.1c-3,2-6.3,3-9.9,3c-5.4-0.1-10-2.1-13.7-6.1c-2.5-2.7-4.2-5.9-4.8-9.6
				c-1.2-7.5,1-13.8,7-18.6c3.5-2.8,7.6-4.2,12.2-4c3.5,0.1,6.7,1.2,9.5,3.1c4.8,3.2,7.6,7.7,8.4,13.4
				C46.5,24.6,46.5,25.5,46.5,26.4L46.5,26.4z"/>
			<path class="st2" d="M2.4,28c0.4-0.4,0.7-0.7,1.1-1c0.2-0.2,0.2-0.2,0-0.4c-0.4-0.3-0.8-0.7-1.1-1c0.1-0.1,0.2-0.1,0.3-0.1
				c1.8,0,3.6,0,5.4,0c0.2,0,0.3,0,0.3,0.3c0,0.6,0,1.2,0,1.9c0,0.3-0.1,0.3-0.3,0.3c-1.1,0-2.2,0-3.3,0C4,27.9,3.2,27.8,2.4,28
				L2.4,28z"/>
			<path class="st2" d="M52.9,27.8c-0.1,0.1-0.2,0.1-0.4,0.1c-1.8,0-3.5,0-5.3,0c-0.3,0-0.4-0.1-0.3-0.4c0-0.6,0-1.2,0-1.8
				c0-0.2,0-0.3,0.2-0.3c1.9,0,3.8,0,5.7,0c0,0,0.1,0,0.2,0c-0.4,0.4-0.7,0.7-1.1,1c-0.2,0.2-0.3,0.3,0,0.5
				C52.3,27.2,52.6,27.5,52.9,27.8L52.9,27.8z"/>
			<path class="st2" d="M54.1,25c-0.5,0-0.8,0-1.2,0c-1.9,0-3.7,0-5.6,0c-0.3,0-0.4,0-0.4-0.3c0-0.3,0.2-0.2,0.4-0.2
				c2.5,0,4.9,0,7.4,0c0.1,0,0.2,0,0.3,0c0.1,0,0.2,0,0.3,0.1c0.1,0.1-0.1,0.2-0.1,0.3c-0.6,0.5-1.1,1.1-1.7,1.6
				c-0.3,0.2-0.3,0.4,0,0.6c0.6,0.4,1.1,0.9,1.6,1.4c0.1,0.1,0.2,0.2,0.2,0.4c-0.1,0.2-0.2,0.1-0.3,0.1c-2.6,0-5.2,0-7.7,0
				c-0.2,0-0.3,0-0.3-0.3c0-0.2,0-0.4,0.3-0.4c2.1,0,4.1,0,6.2,0c0.1,0,0.3,0,0.5,0c-0.6-0.5-1-0.9-1.5-1.3c-0.2-0.2-0.2-0.2,0-0.4
				C52.9,26.1,53.4,25.5,54.1,25L54.1,25z"/>
			<path class="st2" d="M1.3,25.1c0.5,0.5,1.1,1,1.6,1.4c0.2,0.2,0.2,0.2,0,0.4c-0.5,0.4-1,0.9-1.5,1.3c0.2,0,0.3,0,0.4,0
				c2.1,0,4.1,0,6.2,0c0.3,0,0.4,0.1,0.4,0.4c0,0.2-0.1,0.3-0.3,0.3c-2.6,0-5.2,0-7.8,0c-0.1,0-0.3,0-0.3-0.1
				c-0.1-0.1,0.1-0.2,0.2-0.3c0.6-0.5,1.1-1,1.7-1.5c0.2-0.2,0.2-0.2,0-0.4c-0.6-0.5-1.2-1-1.7-1.5c-0.1-0.1-0.2-0.2-0.2-0.4
				c0.1-0.2,0.2-0.2,0.4-0.2c2.6,0,5.1,0,7.7,0c0.2,0,0.3,0,0.3,0.3C8.4,25,8.3,25,8.1,25c-2.1,0-4.2,0-6.4,0
				C1.6,25,1.5,25,1.3,25.1L1.3,25.1z"/>
			<path class="st2" d="M50.5,22.1c0.2,0,0.4,0.1,0.4,0.4c0,0.3-0.2,0.5-0.5,0.5c-0.3,0-0.4-0.2-0.4-0.4
				C50.1,22.2,50.2,22.1,50.5,22.1L50.5,22.1z"/>
			<path class="st2" d="M5.3,22.5c0,0.2-0.2,0.4-0.4,0.4c-0.3,0-0.4-0.2-0.4-0.5c0-0.2,0.2-0.4,0.4-0.4C5.2,22.1,5.3,22.2,5.3,22.5
				L5.3,22.5z"/>
		</g>
		<g>
			<text transform="matrix(0.4518 -0.8921 0.8921 0.4518 7.7711 17.9769)" class="st2 st3 st4">T</text>
			<text transform="matrix(0.5796 -0.8149 0.8149 0.5796 9.2154 15.125)" class="st2 st3 st4">r</text>
			<text transform="matrix(0.6647 -0.7471 0.7471 0.6647 10.8154 12.9275)" class="st2 st3 st4">i</text>
			<text transform="matrix(0.7555 -0.6551 0.6551 0.7555 11.7286 11.7787)" class="st2 st3 st4">p</text>
			<text transform="matrix(0.8268 -0.5625 0.5625 0.8268 14.6388 9.341)" class="st2 st3 st4">l</text>
			<text transform="matrix(0.882 -0.4712 0.4712 0.882 15.8011 8.4677)" class="st2 st3 st4">e</text>
			<text transform="matrix(0.9572 -0.2894 0.2894 0.9572 19.0213 6.6476)" class="st2 st3 st4">M</text>
			<text transform="matrix(0.9836 0.1805 -0.1805 0.9836 30.3447 5.2691)" class="st2 st3 st4">I</text>
			<text transform="matrix(0.9425 0.3343 -0.3343 0.9425 31.9058 5.3586)" class="st2 st3 st4">m</text>
			<text transform="matrix(0.8492 0.528 -0.528 0.8492 37.2148 7.3301)" class="st2 st3 st4">p</text>
			<text transform="matrix(0.7552 0.6555 -0.6555 0.7552 40.4256 9.2985)" class="st2 st3 st4">o</text>
			<text transform="matrix(0.6449 0.7642 -0.7642 0.6449 43.2884 11.8208)" class="st2 st3 st4">r</text>
			<text transform="matrix(0.5499 0.8352 -0.8352 0.5499 45.0285 13.9021)" class="st2 st3 st4">t</text>
			<text transform="matrix(0.4251 0.9051 -0.9051 0.4251 46.1925 15.5401)" class="st2 st3 st4">s</text>
			<text transform="matrix(0.2615 0.9652 -0.9652 0.2615 4.6471 30.8799)" class="st2 st3 st5">A</text>
			<text transform="matrix(0.4166 0.9091 -0.9091 0.4166 5.6597 34.5263)" class="st2 st3 st5">u</text>
			<text transform="matrix(0.5232 0.8522 -0.8522 0.5232 7.2996 37.9552)" class="st2 st3 st5">t</text>
			<text transform="matrix(0.6372 0.7707 -0.7707 0.6372 8.4069 39.8332)" class="st2 st3 st5">o</text>
			<text transform="matrix(0.7834 0.6216 -0.6216 0.7834 12.1206 43.8374)" class="st2 st3 st5">I</text>
			<text transform="matrix(0.8731 0.4876 -0.4876 0.8731 13.4779 45.068)" class="st2 st3 st5">m</text>
			<text transform="matrix(0.9454 0.3259 -0.3259 0.9454 18.3883 47.6816)" class="st2 st3 st5">p</text>
			<text transform="matrix(0.9851 0.1719 -0.1719 0.9851 21.9761 48.9011)" class="st2 st3 st5">o</text>
			<text transform="matrix(0.9997 2.321079e-02 -2.321079e-02 0.9997 25.744 49.5005)" class="st2 st3 st5">r</text>
			<text transform="matrix(0.9961 -8.802506e-02 8.802506e-02 0.9961 28.4742 49.5347)" class="st2 st3 st5">t</text>
			<text transform="matrix(0.9573 -0.289 0.289 0.9573 32.2894 49.0776)" class="st2 st3 st5">S</text>
			<text transform="matrix(0.9052 -0.425 0.425 0.9052 35.9971 47.9254)" class="st2 st3 st5">e</text>
			<text transform="matrix(0.8361 -0.5486 0.5486 0.8361 39.332 46.287)" class="st2 st3 st5">r</text>
			<text transform="matrix(0.7534 -0.6575 0.6575 0.7534 41.6736 44.7859)" class="st2 st3 st5">v</text>
			<text transform="matrix(0.6858 -0.7278 0.7278 0.6858 44.3124 42.4097)" class="st2 st3 st5">i</text>
			<text transform="matrix(0.6099 -0.7925 0.7925 0.6099 45.4364 41.2647)" class="st2 st3 st5">c</text>
			<text transform="matrix(0.4776 -0.8786 0.8786 0.4776 47.4638 38.6228)" class="st2 st3 st5">e</text>
			<text transform="matrix(0.3185 -0.9479 0.9479 0.3185 49.2434 35.2855)" class="st2 st3 st5">s</text>
		</g>
	</g>
	<path class="st6" d="M33.6,27V11.8c0.1-0.1,0.2,0,0.3,0c2.8,1.4,5.2,3.3,6.9,6c1.1,1.8,1.7,3.8,1.8,5.9c0.1,2.3,0.1,4.7-0.2,7
		c-0.3,1.7-0.9,3.2-1.9,4.7v-12c0,0-0.1,0-0.1,0c-0.8,2.5-1.6,5.1-2.4,7.7c-0.9-2.6-1.6-5.1-2.4-7.6c0,0.3,0,0.7,0,1
		c0,5.1,0,10.2,0.1,15.3c0,0.3-0.1,0.5-0.4,0.6C35,40.3,35,40.1,35,39.9c0-1,0-2.1,0-3.1c0-0.1,0-0.3,0-0.4c0-0.2-0.1-0.4-0.3-0.5
		c-0.2-0.1-0.4,0-0.6,0.2c-0.1,0.2-0.2,0.3-0.2,0.5c0,0.1,0,0.3-0.2,0.4c-0.1-0.1-0.1-0.3-0.1-0.4c0-3.1,0-6.1,0-9.2
		C33.6,27.3,33.6,27.2,33.6,27L33.6,27z"/>
	<path class="st6" d="M20.1,40.4c-0.3-0.1-0.4-0.3-0.4-0.6c0-5.4,0-10.8,0-16.3c-0.8,2.5-1.5,5-2.3,7.5c-1-2.5-1.6-5.1-2.5-7.6
		c0,4-0.1,8-0.1,12c-0.6-0.8-1-1.7-1.3-2.6c-0.5-1.3-0.8-2.6-0.8-4c0-1.6,0-3.3,0-4.9c0-2.4,0.8-4.6,2.1-6.6
		c1.7-2.5,3.9-4.3,6.7-5.6c0,0,0,0,0.1,0c0.1,0.1,0,0.3,0,0.4c0,8.2,0,16.4,0,24.5c0,0.1,0,0.3-0.1,0.4c-0.2-0.1-0.2-0.3-0.2-0.4
		c-0.1-0.6-0.4-0.8-0.7-0.8c-0.3,0-0.4,0.3-0.4,0.9c0,1,0,2,0,3C20.3,40.1,20.4,40.3,20.1,40.4L20.1,40.4z"/>
	<path class="st6" d="M20.1,40.4c0.1-0.1,0.1-0.2,0.1-0.4c0-1.1,0-2.1-0.1-3.2c0-0.2,0-0.4,0.1-0.6c0-0.2,0.2-0.4,0.4-0.4
		c0.3,0,0.5,0,0.7,0.2c0.2,0.3,0.3,0.6,0.3,1c0-0.2,0-0.4,0-0.7c0-8.1,0-16.2,0-24.2c0-0.1,0-0.2,0-0.3c0.1,0.1,0.1,0.2,0.1,0.4
		c0,8.3,0,16.5,0,24.8c0,1.5,0,2.9,0,4.4C21.1,41,20.6,40.7,20.1,40.4L20.1,40.4z"/>
	<path class="st6" d="M25.3,22.5c0.1-1.1-0.3-1.9-1.4-2.2c-0.1,0-0.2-0.1-0.2-0.3c0-0.7,0-1.3,0-2.1c0.5,0.2,0.9,0.6,1.2,1
		c0.5,0.6,0.8,1.2,0.7,2c-0.1,1.3,0,2.7,0,4.1c-0.3-0.3-0.5-0.5-0.7-0.8c-0.3-0.3-0.6-0.5-0.9-0.6c-0.2,0-0.2-0.2-0.2-0.3
		c0-0.6,0-1.2,0-1.8c0-0.2,0.1-0.2,0.2-0.1C24.5,21.6,24.9,22,25.3,22.5L25.3,22.5z"/>
	<path class="st6" d="M29.6,25c0-1.6,0-3.2,0-4.7c0-0.3,0.2-0.5,0.3-0.8c0.4-0.6,0.9-1.1,1.6-1.5c0,0.7,0,1.4,0,2
		c0,0.2-0.1,0.2-0.2,0.3c-0.9,0.3-1.4,1.1-1.3,2.1c0.4-0.4,0.7-0.8,1.1-1c0.2-0.1,0.4-0.2,0.3,0.2c0,0.6,0,1.1,0,1.7
		c0,0.1,0,0.3-0.1,0.3C30.7,23.8,30.2,24.3,29.6,25C29.7,25,29.7,25,29.6,25L29.6,25z"/>
	<path class="st6" d="M33.6,27c0.1,0.1,0.1,0.3,0.1,0.5c0,3,0,6,0,9.1c0,0.2,0,0.3,0,0.5c0.1-0.4,0-0.7,0.3-1
		c0.2-0.2,0.5-0.3,0.7-0.2c0.2,0.1,0.4,0.3,0.4,0.6c0,1.2,0,2.4,0,3.6c0,0.1-0.1,0.3,0.1,0.4c-0.5,0.4-1,0.6-1.5,0.8
		c-0.1,0-0.1-0.1-0.1-0.1c0-4.6,0-9.2,0-13.9C33.6,27.2,33.6,27.1,33.6,27L33.6,27z"/>
	<path class="st6" d="M31.5,24.3c0,0.6,0,1.1,0,1.7c0,0.2-0.1,0.3-0.3,0.4c-0.9,0.4-1.3,1.1-1.2,2.1c0.4-0.5,0.7-0.8,1.2-1.1
		c0.3-0.1,0.3-0.1,0.3,0.2c0,0.5,0,1,0,1.5c0,0.1,0,0.2-0.1,0.3c-0.8,0.3-1.3,0.8-1.7,1.4c-0.1,0-0.1-0.2-0.1-0.2c0-1.4,0-2.7,0-4.1
		c0-0.2,0.1-0.4,0.2-0.6C30.3,25.2,30.7,24.6,31.5,24.3L31.5,24.3z"/>
	<path class="st6" d="M25.7,30.9c-0.3-0.4-0.6-0.7-0.9-1c-0.1-0.1-0.3-0.3-0.5-0.3c-0.5-0.1-0.6-0.5-0.6-0.9c0-0.4,0-0.7,0-1.1
		c0-0.2,0.1-0.2,0.3-0.2c0.5,0.2,0.9,0.6,1.2,1c0.1-0.9-0.2-1.5-1.1-2c-0.3-0.1-0.4-0.3-0.4-0.6c0-0.4,0-0.9,0-1.3
		c0-0.2,0.1-0.2,0.2-0.1c0.9,0.6,1.7,1.3,1.7,2.6c0,1.2,0,2.4,0,3.5C25.7,30.6,25.7,30.7,25.7,30.9L25.7,30.9z"/>
	<path class="st6" d="M30,16.4c0.4-0.5,0.7-0.9,1.2-1.1c0.2-0.1,0.3-0.1,0.3,0.2c0,0.6,0,1.1,0,1.7c0,0.1,0,0.2-0.1,0.3
		c-0.9,0.4-1.2,0.7-1.8,1.5c0-0.3,0-0.5,0-0.6c0-1.2,0-2.5,0-3.7c0-0.3,0.1-0.5,0.3-0.8c0.4-0.5,0.8-1,1.4-1.3
		c0.2-0.1,0.3-0.1,0.3,0.2c0,0.2,0,0.4,0,0.6c0,0.5,0,0.9-0.6,1.2C30.2,14.8,30,15.5,30,16.4L30,16.4z"/>
	<path class="st6" d="M25.7,18.8c-0.5-0.6-1-1.3-1.8-1.5c-0.1,0-0.1-0.2-0.1-0.3c0-0.5,0-1.1,0-1.6c0-0.3,0.1-0.3,0.3-0.2
		c0.5,0.2,0.9,0.6,1.2,1.1c0.2-0.9-0.2-1.7-1.2-2.1c-0.2-0.1-0.3-0.2-0.3-0.5c0-0.4,0-0.7,0-1.1c0-0.2,0-0.3,0.3-0.2
		c0.9,0.6,1.7,1.2,1.7,2.5C25.6,16.2,25.7,17.5,25.7,18.8L25.7,18.8z"/>
	<path class="st6" d="M31.5,30.1c0,0.6,0,1.1,0,1.6c0,0.2,0,0.3-0.2,0.3c-0.9,0.4-1.3,1.1-1.3,2.1c0.3-0.3,0.5-0.6,0.8-0.8
		c0.2-0.1,0.4-0.4,0.6-0.3c0.2,0.1,0,0.4,0.1,0.6c0,0,0,0,0,0c0.1,0.6,0,1.1-0.7,1.4c-0.5,0.2-0.8,0.7-1.2,1.2c0-0.3,0-0.5,0-0.8
		c0-1,0-2.1,0-3.1c0-0.2,0.1-0.4,0.2-0.6C30.2,31.2,30.7,30.5,31.5,30.1L31.5,30.1z"/>
	<path class="st6" d="M25.2,34.1c0-1.1-0.3-1.7-1.2-2.1c-0.2-0.1-0.3-0.2-0.3-0.4c0-0.5,0-1,0-1.6c0.9,0.5,1.5,1.3,1.9,2.1
		c0,0.1,0,0.1,0,0.2c0,1.3,0,2.6,0,3.8c0,0,0,0.1,0,0.2c-0.4-0.4-0.7-0.8-1.1-1.1c-0.1-0.1-0.2-0.2-0.3-0.2
		c-0.5-0.1-0.5-0.4-0.5-0.8c0-0.3,0-0.6,0-0.9c0-0.3,0.1-0.3,0.3-0.2C24.5,33.3,24.9,33.7,25.2,34.1L25.2,34.1z"/>
	<path class="st6" d="M25.7,40.3c0,0.7,0,1.4,0,2.2c0,0.2-0.1,0.3-0.3,0.2c-0.2-0.1-0.3-0.1-0.5-0.1c-1.3-0.4-1.3-0.5-1.1-1.9
		c0.5,0.4,1,0.7,1.4,1.2c0.1-0.4,0.1-0.7-0.2-0.9c-0.3-0.2-0.6-0.5-0.9-0.8c-0.2-0.5-0.2-1,0-1.6c0.4,0.3,0.7,0.7,1,1.1
		c0.1-0.2,0.1-0.4,0.1-0.5c0.1,0,0.2,0.1,0.2,0.2c0,0.6,0.1,1.2,0.1,1.8c0-0.2,0-0.4,0-0.5C25.5,40.4,25.5,40.3,25.7,40.3L25.7,40.3
		z"/>
	<path class="st6" d="M28.1,22.8c0-1.4,0-2.7,0-4c0-0.1,0-0.2,0.1-0.2c0.3-0.3,0.6-0.5,0.9-0.8c0,0.3,0,0.5,0,0.8c0,1,0,2,0,3
		c0,0.3-0.1,0.5-0.3,0.6C28.5,22.4,28.3,22.6,28.1,22.8L28.1,22.8z"/>
	<path class="st6" d="M26.2,17.6C26.3,17.7,26.3,17.7,26.2,17.6c0.8,0.6,1.1,1.4,1,2.3c-0.1,0.9,0,1.8,0,2.9
		c-0.3-0.4-0.6-0.6-0.9-0.8c-0.1-0.1-0.2-0.2-0.2-0.3C26.2,20.4,26.2,19,26.2,17.6L26.2,17.6z"/>
	<path class="st6" d="M29.8,42.7c-0.2,0-0.2-0.1-0.2-0.2c0-1.6,0-3.2,0-4.8c0-0.2,0.1-0.3,0.2-0.5c0.4-0.7,0.9-1.3,1.7-1.8
		c0,0.6,0,1.1,0,1.6c0,0.2-0.1,0.2-0.2,0.3c-0.6,0.3-1,0.8-1.2,1.4c-0.2,0.4-0.2,0.8-0.1,1.2c0.1,0.4,0.1,0.8,0,1.2
		c0,0.2,0,0.4,0,0.6c-0.1,0.2-0.1,0.3-0.1,0.5C29.9,42.4,29.9,42.6,29.8,42.7L29.8,42.7z"/>
	<path class="st6" d="M27.2,28.7c-0.3-0.4-0.5-0.6-0.8-0.8c-0.1-0.1-0.2-0.1-0.2-0.3c0-1.3,0-2.5,0-3.8c0.3,0.3,0.6,0.6,0.9,0.9
		c0.1,0.1,0.1,0.1,0.1,0.2C27.2,26.1,27.2,27.3,27.2,28.7L27.2,28.7z"/>
	<path class="st6" d="M29.1,12.2c0,1.2,0,2.5,0,3.7c0,0.1,0,0.2-0.2,0.3c-0.3,0.2-0.5,0.4-0.8,0.7c0-1.1,0-2,0-3
		c0-0.6,0.1-1.1,0.6-1.4C28.8,12.5,28.9,12.3,29.1,12.2L29.1,12.2L29.1,12.2z"/>
	<path class="st6" d="M29,29.5c0,1.3,0,2.5,0,3.7c0,0.2,0,0.4-0.2,0.5c-0.3,0.2-0.5,0.4-0.7,0.7c-0.1,0-0.1-0.2-0.1-0.2
		c0-1.1,0-2.2,0-3.3c0-0.2,0-0.4,0.2-0.5C28.5,30.1,28.8,29.8,29,29.5L29,29.5z"/>
	<path class="st6" d="M27.2,34.4c-0.1-0.2-0.3-0.4-0.5-0.5c-0.4-0.2-0.5-0.6-0.5-1c0-1.1,0-2.2,0-3.3c0.3,0.3,0.6,0.6,0.9,0.9
		c0.1,0.1,0.1,0.1,0.1,0.2c0,1.2,0,2.3,0,3.5C27.2,34.3,27.2,34.4,27.2,34.4L27.2,34.4z"/>
	<path class="st6" d="M28.1,28.7c0-1.4,0-2.6,0-3.9c0-0.1,0-0.2,0.1-0.3c0.3-0.3,0.6-0.5,0.9-0.9c0,0.2,0,0.4,0,0.6c0,1,0,2.1,0,3.1
		c0,0.3-0.1,0.4-0.3,0.6C28.5,28.2,28.3,28.4,28.1,28.7L28.1,28.7z"/>
	<path class="st6" d="M26.3,12.2c0.3,0.3,0.5,0.6,0.8,0.9c0.1,0.1,0.1,0.1,0.1,0.2c0,1.2,0,2.3,0,3.6c-0.3-0.3-0.6-0.6-0.9-0.8
		c-0.1-0.1-0.2-0.1-0.2-0.2c0-1.2,0-2.4,0-3.6C26.3,12.2,26.3,12.2,26.3,12.2L26.3,12.2z"/>
	<path class="st6" d="M25.7,40.3c-0.1,0.3,0,0.6-0.1,0.9c0-0.7-0.2-1.3-0.2-1.9c0-0.1,0-0.2-0.1-0.3c0-0.8-0.5-1.3-1.1-1.6
		c-0.3-0.2-0.4-0.4-0.4-0.8c0.3-0.2,0.6-0.3,0.9-0.3c0.5,0.5,1,1.1,0.9,1.9C25.6,38.9,25.7,39.6,25.7,40.3L25.7,40.3z"/>
	<path class="st6" d="M29.9,41.2c0.1-0.6-0.1-1.2-0.2-1.9c0-0.3,0.1-0.4,0.3-0.6c0,0.3-0.1,0.6,0,1c0.4-0.7,0.8-1.2,1.5-1.5
		c0,0.5,0,1,0,1.5c0,0.1,0,0.1-0.1,0.2C30.8,40.2,30.5,40.8,29.9,41.2L29.9,41.2z"/>
	<path class="st6" d="M25.3,11.2c0.1-0.2,0-0.3,0-0.4c0-0.1-0.1-0.2,0-0.3c0.1,0,0.2-0.1,0.3,0c0.1,0,0.1,0.2,0.1,0.3
		c0,0.8,0,1.5,0,2.3c-0.2,0-0.2-0.1-0.2-0.2c-0.4-0.5-0.9-0.9-1.5-1.1c-0.4-0.1-0.1-0.4-0.2-0.6c0-0.2,0.1-0.2,0.3-0.3
		C24.6,10.6,24.9,10.8,25.3,11.2z"/>
	<path class="st6" d="M29.6,13.1c0-0.9,0-1.7,0-2.5c0-0.1,0-0.2,0.2-0.2c0.1,0,0.3,0,0.3,0.2c0,0.2-0.1,0.3-0.1,0.5
		c0.1,0,0.2-0.1,0.2-0.1c0.3-0.4,0.8-0.2,1.2-0.2c0.1,0,0.2,0.1,0.1,0.2c0,0.2,0.1,0.6-0.1,0.7C30.7,12,30.1,12.5,29.6,13.1
		L29.6,13.1z"/>
	<path class="st6" d="M27.2,36.2v3.6c-0.2-0.4-0.5-0.6-0.8-0.8c-0.1-0.1-0.1-0.1-0.1-0.3c0-0.9,0-1.8,0-2.7c0.2,0.1,0.2,0.4,0.2,0.5
		c0,0.3,0.2,0.5,0.4,0.6c0.2,0.1,0.2,0,0.2-0.2c0-0.2,0-0.3,0-0.5C27.1,36.4,27,36.3,27.2,36.2L27.2,36.2z"/>
	<path class="st6" d="M29.8,42.7c0-0.2,0-0.4-0.1-0.6c0-0.2,0.1-0.3,0.2-0.2c0.2,0.1,0.2-0.1,0.3-0.2c0.4-0.4,0.8-0.7,1.3-1
		c0,0.5,0,1,0,1.4c0,0.1-0.1,0.2-0.2,0.2C30.8,42.4,30.3,42.5,29.8,42.7L29.8,42.7z"/>
	<path class="st6" d="M29,37.3c0,0.5,0,1,0,1.5c0,0.1,0,0.2-0.1,0.2c-0.3,0.2-0.5,0.5-0.8,0.7v-2.3C28.4,37.3,28.6,37.2,29,37.3
		L29,37.3z"/>
	<path class="st6" d="M29,37.3c-0.3,0-0.6,0.2-0.9,0.2c0-0.1,0-0.3,0-0.4c-0.2-0.9,0.5-1.3,0.9-1.9c0,0,0.1,0,0.1,0c0,0,0,0,0,0.1
		c-0.1,0.3,0,0.7-0.1,1C29,36.7,29,37,29,37.3L29,37.3z"/>
	<path class="st6" d="M27.2,36.2c-0.2,0.4,0,0.8-0.1,1.2c-0.2-0.1-0.5-0.2-0.7-0.3c-0.2-0.1-0.1-0.2-0.2-0.3c0-0.2,0.1-0.5-0.1-0.7
		v-1C26.6,35.6,27,35.8,27.2,36.2L27.2,36.2z"/>
	<path class="st6" d="M24.2,38.5c0,0.5,0,1,0,1.6c-0.3,0-0.4-0.2-0.4-0.5c0-0.4,0-0.8,0-1.2C24,38.3,24.1,38.4,24.2,38.5L24.2,38.5z
		"/>
	<path class="st6" d="M24.7,36.3c-0.3,0.2-0.6,0.2-0.9,0.3v-1.1C24.2,35.8,24.5,36,24.7,36.3L24.7,36.3z"/>
	<path class="st6" d="M29,36.3c0-0.3,0-0.7,0.1-1C29.1,35.7,29.1,36,29,36.3z"/>
	<path class="st6" d="M10,40c-0.3,0.7-0.3,0.7-0.8,0.1c0.1,0,0.3,0,0.4,0C9.7,40.1,9.9,40.1,10,40L10,40z"/>
	<g>
		<path class="st2" d="M37.9,24c-0.7-2.7-1.4-5.3-2.1-8c-0.2-0.8-0.2-1.7-0.2-2.6c0.6,0.4,1.2,0.9,1.8,1.3c0.8,0.7,1.5,1.4,2.2,2.3
			c0.2,0.2,0.2,0.4,0.1,0.8c-0.6,1.9-1.1,3.8-1.6,5.8C38,23.7,38,23.8,37.9,24L37.9,24z"/>
		<path class="st2" d="M17.4,24.1c-0.5-1.6-0.9-3.1-1.3-4.6c-0.2-0.6-0.3-1.2-0.5-1.7c0-0.1-0.1-0.2,0-0.3c1.1-1.5,2.4-2.8,4.1-3.9
			c0,1,0.1,2-0.2,3C18.8,18.9,18.1,21.4,17.4,24.1L17.4,24.1z"/>
	</g>
</g>
<g>
	<path class="st2" d="M80.3,37.8H75V16.9H68v-4.5h19.2v4.5h-6.9V37.8z"/>
	<path class="st2" d="M101.6,18c0.7,0,1.3,0.1,1.8,0.2l-0.4,5c-0.4-0.1-1-0.2-1.6-0.2c-1.7,0-3,0.4-4,1.3c-0.9,0.9-1.4,2.1-1.4,3.7
		v9.9h-5.3V18.4h4l0.8,3.3h0.3c0.6-1.1,1.4-2,2.4-2.6C99.3,18.3,100.4,18,101.6,18z"/>
	<path class="st2" d="M106.7,13.3c0-1.7,1-2.6,2.9-2.6s2.9,0.9,2.9,2.6c0,0.8-0.2,1.5-0.7,1.9c-0.5,0.5-1.2,0.7-2.2,0.7
		C107.7,16,106.7,15.1,106.7,13.3z M112.2,37.8h-5.3V18.4h5.3V37.8z"/>
	<path class="st2" d="M128.5,38.2c-2.3,0-4.1-0.8-5.4-2.5h-0.3c0.2,1.6,0.3,2.6,0.3,2.8v7.9h-5.3v-28h4.3l0.7,2.5h0.2
		c1.2-1.9,3.1-2.9,5.5-2.9c2.3,0,4.1,0.9,5.4,2.7c1.3,1.8,1.9,4.2,1.9,7.4c0,2.1-0.3,3.9-0.9,5.4c-0.6,1.5-1.5,2.7-2.6,3.5
		C131.3,37.8,130,38.2,128.5,38.2z M126.9,22.2c-1.3,0-2.3,0.4-2.9,1.2c-0.6,0.8-0.9,2.1-0.9,4V28c0,2.1,0.3,3.6,0.9,4.5
		s1.6,1.4,2.9,1.4c2.4,0,3.6-2,3.6-5.9c0-1.9-0.3-3.3-0.9-4.3C129.1,22.7,128.2,22.2,126.9,22.2z"/>
	<path class="st2" d="M145.6,37.8h-5.3V10.8h5.3V37.8z"/>
	<path class="st2" d="M160,38.2c-3.1,0-5.6-0.9-7.3-2.6c-1.8-1.7-2.6-4.2-2.6-7.3c0-3.3,0.8-5.8,2.4-7.6c1.6-1.8,3.9-2.7,6.8-2.7
		c2.7,0,4.9,0.8,6.4,2.3c1.5,1.6,2.3,3.7,2.3,6.5v2.6h-12.5c0.1,1.5,0.5,2.7,1.3,3.5s2,1.3,3.5,1.3c1.2,0,2.3-0.1,3.3-0.4
		c1-0.2,2.1-0.6,3.3-1.2v4.1c-0.9,0.5-1.9,0.8-3,1C162.8,38.1,161.5,38.2,160,38.2z M159.3,21.8c-1.1,0-2,0.4-2.6,1.1
		c-0.6,0.7-1,1.7-1.1,3h7.4c0-1.3-0.4-2.3-1-3C161.3,22.1,160.4,21.8,159.3,21.8z"/>
	<path class="st2" d="M192.7,37.8l-6.1-20h-0.2c0.2,4.1,0.3,6.8,0.3,8.1v11.8h-4.8V12.4h7.3l6,19.4h0.1l6.4-19.4h7.3v25.4h-5v-12
		c0-0.6,0-1.2,0-2c0-0.7,0.1-2.7,0.2-5.9h-0.2l-6.6,19.9H192.7z"/>
</g>
</svg>
