<?xml version="1.0" encoding="UTF-8"?><svg id="a" xmlns="http://www.w3.org/2000/svg" viewBox="0 0 35.54 8.67"><defs><style>.b{isolation:isolate;}.c{fill:#f6f5f5;}.c,.d{stroke-width:0px;}.d{fill:#1f2022;}</style></defs><path class="c" d="M7.9,4.5c-.03,1.17-.53,2.09-1.52,2.74-.51.33-1.08.51-1.68.5-.92,0-1.7-.36-2.33-1.04-.43-.46-.72-1.01-.82-1.63-.2-1.27.17-2.34,1.19-3.16.6-.48,1.3-.71,2.07-.69.59.02,1.13.21,1.62.53.82.54,1.29,1.31,1.43,2.28.02.15.02.31.03.46h0Z"/><path class="c" d="M.39,4.76c.06-.07.12-.12.19-.17.03-.03.03-.04,0-.07-.07-.05-.14-.11-.19-.18.02-.02.04-.01.06-.01.3,0,.61,0,.91,0,.04,0,.06,0,.05.05,0,.11,0,.21,0,.32,0,.05-.01.05-.05.05-.19,0-.38,0-.57,0-.13,0-.26,0-.41.01h0Z"/><path class="c" d="M8.99,4.74s-.04,0-.06,0c-.3,0-.6,0-.89,0-.05,0-.06-.01-.06-.06,0-.1,0-.21,0-.31,0-.03,0-.05.04-.05.32,0,.64,0,.97,0,0,0,.01,0,.03,0-.07.06-.12.12-.19.17-.04.03-.05.05,0,.08.06.04.11.1.17.15h0Z"/><path class="c" d="M9.19,4.26h-.2c-.32,0-.64,0-.95,0-.04,0-.06,0-.06-.06,0-.06.04-.04.06-.04.42,0,.84,0,1.26,0,.02,0,.04,0,.06,0,.02,0,.04,0,.05.02.01.02,0,.04-.02.05-.1.09-.19.18-.29.26-.05.04-.04.06,0,.1.09.07.18.16.28.23.02.02.04.03.03.06-.01.03-.04.02-.06.02-.44,0-.88,0-1.32,0-.03,0-.05,0-.05-.04,0-.04,0-.06.05-.06.35,0,.7,0,1.05,0h.09c-.09-.08-.18-.16-.26-.23-.03-.03-.03-.04,0-.07.09-.08.18-.17.29-.26h0Z"/><path class="c" d="M.22,4.27c.09.08.18.17.27.24.03.03.03.04,0,.06-.08.07-.17.15-.26.23.03,0,.05,0,.07,0,.35,0,.7,0,1.05,0,.05,0,.06.01.06.06,0,.04-.01.04-.05.04-.44,0-.88,0-1.32,0-.02,0-.04,0-.05-.02,0-.02.01-.04.03-.05.1-.09.19-.17.29-.26.03-.03.03-.04,0-.07-.1-.09-.2-.17-.29-.26-.02-.02-.04-.03-.03-.06.01-.03.04-.03.07-.03.43,0,.87,0,1.3,0,.03,0,.05,0,.05.04,0,.04-.01.05-.05.05-.36,0-.72,0-1.08,0-.02,0-.04,0-.07,0h0Z"/><path class="c" d="M8.58,3.75s.07.02.07.07c0,.05-.03.08-.08.08-.05,0-.08-.03-.07-.07,0-.04.03-.07.08-.07h0Z"/><path class="c" d="M.9,3.83s-.03.07-.08.06c-.05,0-.07-.04-.07-.08,0-.04.03-.07.07-.06.04,0,.07.03.07.08h0Z"/><g class="b"><g class="b"><path class="c" d="M1.48,2.74l-.07.14-.46-.37-.08.16-.11-.09.23-.46.11.09-.08.16.46.37Z"/></g></g><g class="b"><g class="b"><path class="c" d="M1.59,2.53l-.37-.41.08-.12.04.04s-.01-.08.01-.12l.09-.13.09.1-.12.18s-.01.03,0,.05l.26.29-.09.12Z"/></g></g><g class="b"><g class="b"><path class="c" d="M1.51,1.66l-.1-.13.1-.11.1.13-.1.11ZM1.87,2.16l-.33-.44.1-.11.33.44-.1.11Z"/></g></g><g class="b"><g class="b"><path class="c" d="M2.18,1.84l-.06-.11.14-.12s.02-.02,0-.04l-.11-.2s0,0,0-.01c0,0-.02,0-.03,0l-.18.15.31.57-.11.1-.38-.69.35-.3s.08-.04.11,0c0,0,.02.02.02.03l.16.29c.04.07.03.12-.03.16l-.19.17Z"/></g></g><g class="b"><g class="b"><path class="c" d="M2.53,1.56l-.3-.73.12-.08.3.73-.12.08Z"/></g></g><g class="b"><g class="b"><path class="c" d="M2.81,1.37c-.05.03-.08.02-.11-.02,0-.01,0-.02-.01-.04l-.09-.32c-.02-.07,0-.12.06-.15l.32-.17s.08-.02.1.02c0,0,.01.02.01.04l.06.21-.32.17-.03-.09.19-.1-.02-.07s0,0,0-.01c0,0-.01-.01-.03,0l-.19.1s-.02.02-.02.04l.07.23s0,.01,0,.02c0,.01.01.01.03,0l.32-.17.04.12-.39.21Z"/></g></g><g class="b"><g class="b"><path class="c" d="M3.87.94l-.04-.45-.13.5-.12.04-.21-.4.04.45-.13.04-.06-.74.17-.05.24.45.15-.57.16-.05.06.74-.13.04Z"/></g></g><g class="b"><g class="b"><path class="c" d="M5.21.91l.28-.68.16.03-.28.68-.16-.03Z"/></g></g><g class="b"><g class="b"><path class="c" d="M6.17,1.18l.2-.33s0,0,0-.01c0-.01,0-.02-.02-.02l-.15-.05s-.03,0-.04.01l-.2.34-.14-.05.2-.33s0,0,0-.01c0-.01,0-.02-.02-.02l-.15-.05s-.03,0-.04.02l-.2.33-.14-.05.29-.47.14.05-.03.05s.08-.04.12-.02l.17.06c.05.02.07.04.06.08.04-.03.08-.03.12-.02l.17.06c.05.02.07.05.06.09,0,.01,0,.02-.02.04l-.23.38-.14-.05Z"/></g></g><g class="b"><g class="b"><path class="c" d="M6.54,1.39l.09-.1.15.1s.03,0,.04,0l.15-.16s0,0,0-.01c0-.01,0-.02,0-.03l-.2-.12-.45.47-.13-.08.54-.56.39.24c.05.03.06.06.04.1,0,0-.02.02-.03.03l-.23.24c-.05.05-.1.06-.16.02l-.22-.13Z"/></g></g><g class="b"><g class="b"><path class="c" d="M6.98,1.69s-.05-.07-.02-.1c0,0,.02-.02.03-.03l.27-.2c.06-.04.11-.05.16,0l.28.24s.05.07.02.1c0,0-.02.02-.03.03l-.27.2c-.06.04-.11.05-.16,0l-.28-.24ZM7.53,1.66s0,0,0,0c0,0,0-.02-.01-.03l-.16-.14s-.03-.01-.04,0l-.18.14s0,0-.01,0c0,0,0,.02,0,.03l.16.14s.03.02.05,0l.18-.14Z"/></g></g><g class="b"><g class="b"><path class="c" d="M7.39,2.06l.49-.26.09.11-.05.03s.08,0,.11.04l.1.12-.12.06-.14-.17s-.02-.02-.05,0l-.34.18-.1-.11Z"/></g></g><g class="b"><g class="b"><path class="c" d="M7.73,2.5s-.03-.08,0-.11c0,0,.02-.01.04-.02l.56-.22.08.12-.14.06.07.11-.11.04-.07-.11-.26.1s0,0-.01,0c0,0,0,.01,0,.03l.05.08-.11.04-.1-.15Z"/></g></g><g class="b"><g class="b"><path class="c" d="M7.87,2.7l.12-.03.16.34s.02.02.04.02h.05s0-.01,0-.01c0,0,0-.01,0-.03l-.12-.26s-.01-.07.02-.08c0,0,.01,0,.02,0l.14-.03c.06-.02.1,0,.14.07l.19.4-.12.03-.16-.33s-.02-.02-.04-.02h-.04s0,.01,0,.01c-.01,0-.01.01,0,.03l.12.27s.01.07-.02.09c0,0-.01,0-.02,0l-.15.03c-.06.02-.1,0-.14-.07l-.19-.41Z"/></g></g><g class="b"><g class="b"><path class="c" d="M.9,5.68l.09-.03-.06-.22-.11-.02-.04-.13.71.15.05.18-.61.21-.04-.14ZM1.39,5.51l-.34-.07.05.17.29-.1Z"/></g></g><g class="b"><g class="b"><path class="c" d="M1.13,6.26h.05s-.07-.04-.08-.07l-.09-.19s-.02-.07.02-.09c0,0,.02,0,.03,0l.38-.09.05.12-.34.08s0,0-.01,0c-.01,0-.01.01,0,.03l.08.17s.02.02.04.02l.34-.08.05.12-.48.11-.05-.12Z"/></g></g><g class="b"><g class="b"><path class="c" d="M1.31,6.57s-.02-.07,0-.09c0,0,.02,0,.03-.02l.5-.18.07.11-.13.05.06.1-.1.04-.06-.1-.24.08s0,0-.01,0c0,0,0,.01,0,.02l.05.08-.1.03-.08-.13Z"/></g></g><g class="b"><g class="b"><path class="c" d="M1.51,6.88s-.03-.07,0-.09c0,0,.02-.01.03-.02l.26-.14c.06-.03.1-.03.14.02l.21.25s.03.07,0,.09c0,0-.02.01-.03.02l-.26.14c-.06.03-.1.03-.14-.03l-.21-.25ZM2,6.94s0,0,0,0c0,0,0-.02,0-.03l-.12-.14s-.02-.02-.04,0l-.18.09s0,0-.01,0c0,0,0,.01,0,.02l.12.14s.03.02.04.01l.18-.09Z"/></g></g><g class="b"><g class="b"><path class="c" d="M2.1,7.49l.5-.42.11.09-.5.42-.11-.09Z"/></g></g><g class="b"><g class="b"><path class="c" d="M2.9,8.01l.23-.26s0,0,0,0c0,0,0-.01-.01-.02l-.12-.07s-.03,0-.04,0l-.23.26-.12-.06.23-.26s0,0,0,0c0,0,0-.02-.01-.02l-.12-.07s-.03,0-.04,0l-.23.26-.12-.06.32-.37.11.06-.04.04s.07-.02.11,0l.14.08s.06.05.04.08c.04-.02.07-.02.11,0l.14.08s.06.05.04.09c0,0-.01.02-.02.03l-.26.3-.12-.06Z"/></g></g><g class="b"><g class="b"><path class="c" d="M3.34,8.18l.06-.1.15.05s.03,0,.04-.02l.1-.17s0,0,0-.01c0,0,0-.02-.01-.02l-.2-.07-.3.49-.12-.04.36-.59.38.13c.05.02.07.04.05.08,0,0,0,.02-.02.03l-.15.26c-.03.06-.08.07-.13.05l-.21-.07Z"/></g></g><g class="b"><g class="b"><path class="c" d="M3.86,8.34c-.05,0-.07-.03-.06-.07,0,0,0-.02.01-.04l.11-.28c.02-.06.06-.08.12-.07l.32.06c.05,0,.07.03.07.07,0,0,0,.02-.01.04l-.11.28c-.02.06-.06.08-.12.07l-.32-.06ZM4.27,8.07s0,0,0-.01c0-.01,0-.02-.02-.02l-.18-.03s-.03,0-.03.02l-.07.18s0,0,0,.01c0,0,0,.01.02.02l.18.03s.03,0,.04-.02l.07-.18Z"/></g></g><g class="b"><g class="b"><path class="c" d="M4.42,8.42l.11-.48h.13s-.01.05-.01.05c.02-.04.05-.05.1-.05h.14s-.03.12-.03.12h-.19s-.03,0-.03.02l-.08.34h-.13Z"/></g></g><g class="b"><g class="b"><path class="c" d="M4.97,8.41c-.05,0-.08-.01-.08-.05,0,0,0-.02,0-.04l.06-.53h.13s-.02.12-.02.12h.12s-.01.1-.01.1h-.11s-.03.26-.03.26c0,0,0,0,0,.01,0,.01,0,.01.02.01h.09s-.01.1-.01.1h-.15Z"/></g></g><g class="b"><g class="b"><path class="c" d="M5.53,8.33v-.13s.32-.1.32-.1c.02,0,.03-.02.03-.04v-.09s0,0,0-.01c0-.01-.01-.01-.03,0l-.24.07s-.08,0-.09-.04c0,0,0-.02,0-.03l-.02-.17c0-.08.02-.12.1-.14l.38-.12v.12s-.31.1-.31.1c-.02,0-.02.02-.02.04v.09s0,0,0,.01c0,0,0,.01.02,0l.25-.07s.08,0,.09.04c0,0,0,.02,0,.03l.02.18c0,.08-.02.12-.09.14l-.39.12Z"/></g></g><g class="b"><g class="b"><path class="c" d="M6.23,8.1s-.08.02-.09-.02c0,0,0-.02-.01-.04l-.07-.29c-.02-.06,0-.1.06-.13l.29-.14s.07-.01.08.02c0,0,0,.02.01.03l.04.19-.29.14-.02-.08.17-.08v-.06s-.02,0-.02-.01c0,0-.01-.01-.02,0l-.17.08s-.02.02-.02.04l.05.21s0,0,0,.01c0,.01.01.01.03,0l.29-.14.03.11-.35.17Z"/></g></g><g class="b"><g class="b"><path class="c" d="M6.72,7.85l-.18-.46.11-.07.02.05s.02-.07.05-.09l.12-.08.04.11-.16.1s-.02.02-.01.04l.13.32-.11.07Z"/></g></g><g class="b"><g class="b"><path class="c" d="M7.23,7.49l-.38-.3.11-.09.27.23-.07-.4.1-.09.09.56-.12.1Z"/></g></g><g class="b"><g class="b"><path class="c" d="M7.25,6.73l-.08-.12.09-.1.08.12-.09.1ZM7.56,7.17l-.28-.4.09-.1.28.4-.09.1Z"/></g></g><g class="b"><g class="b"><path class="c" d="M7.8,6.91s-.06.05-.09.02c0,0-.02-.01-.03-.03l-.19-.23s-.05-.09,0-.14l.21-.27.08.09-.16.21s-.01.02,0,.04l.13.15s0,0,0,0c0,0,.02,0,.03,0l.16-.21.08.09-.21.27Z"/></g></g><g class="b"><g class="b"><path class="c" d="M8.13,6.45s-.05.06-.09.04c0,0-.02-.01-.03-.02l-.23-.19c-.05-.04-.06-.08-.03-.14l.15-.28s.05-.05.08-.03c0,0,.02.01.03.02l.15.12-.15.28-.06-.05.09-.17-.05-.04s0,0-.01,0c0,0-.01,0-.02.01l-.09.17s0,.03,0,.04l.16.14s0,0,.01,0c.01,0,.02,0,.02-.01l.15-.28.08.07-.19.34Z"/></g></g><g class="b"><g class="b"><path class="c" d="M8.38,5.96l-.1-.06.1-.31s0-.03-.01-.04l-.04-.02s0,0,0,0c0,0-.01,0-.02.01l-.08.24s-.04.05-.07.04c0,0-.01,0-.02,0l-.11-.07s-.07-.06-.04-.13l.13-.38.09.06-.1.31s0,.03.01.04l.03.02s0,0,0,0c0,0,.02,0,.02-.01l.08-.25s.04-.05.07-.04c0,0,.01,0,.02,0l.12.07s.07.06.04.13l-.13.38Z"/></g></g><path class="d" d="M5.7,4.6v-2.59s.03,0,.04,0c.48.23.89.56,1.17,1.01.19.31.29.64.31,1,.02.4.02.8-.04,1.2-.05.28-.16.54-.33.79v-2.04s0,0-.01,0c-.13.43-.27.87-.4,1.31-.15-.44-.27-.87-.41-1.29,0,.06,0,.12,0,.18,0,.87,0,1.73.01,2.6,0,.06-.02.09-.07.11-.04-.01-.03-.05-.03-.08,0-.18,0-.35,0-.53,0-.02,0-.05,0-.07,0-.04-.02-.07-.06-.08-.04-.01-.07,0-.1.03-.02.03-.03.06-.04.09,0,.02,0,.05-.03.07-.02-.02-.01-.05-.01-.07,0-.52,0-1.04,0-1.56,0-.02,0-.05,0-.07h0Z"/><path class="d" d="M3.41,6.87c-.05-.02-.06-.05-.06-.1,0-.92,0-1.84,0-2.77-.13.43-.26.85-.39,1.28-.16-.43-.28-.87-.42-1.3,0,.68-.01,1.36,0,2.05-.1-.14-.16-.29-.22-.44-.08-.22-.13-.44-.14-.67,0-.28,0-.56,0-.84,0-.41.14-.78.36-1.12.28-.43.67-.74,1.14-.95,0,0,0,0,.01,0,.01.02,0,.04,0,.06,0,1.39,0,2.78,0,4.17,0,.02,0,.05-.01.07-.03-.01-.03-.04-.03-.07-.02-.1-.06-.14-.13-.13-.05,0-.07.06-.07.16,0,.17,0,.34,0,.51,0,.03.01.07-.04.09h0Z"/><path class="d" d="M3.41,6.87s.02-.04.02-.06c0-.18,0-.36,0-.54,0-.04,0-.07.01-.11,0-.03.03-.06.06-.07.05,0,.09,0,.12.04.03.05.05.11.06.17v-.11c0-1.37,0-2.75,0-4.12,0-.02,0-.04,0-.06.02.02.01.04.01.06,0,1.4,0,2.8,0,4.21v.76c-.1-.05-.2-.1-.28-.16h0Z"/><path class="d" d="M4.29,3.83c.02-.19-.06-.32-.23-.38-.02,0-.03-.02-.03-.04,0-.11,0-.23,0-.35.09.04.15.09.21.16.08.1.13.2.12.34-.01.23,0,.46,0,.7-.04-.05-.08-.09-.12-.13-.05-.05-.09-.09-.16-.11-.03,0-.04-.03-.04-.05,0-.1,0-.21,0-.31,0-.04.02-.03.04-.02.09.04.15.11.21.19h0Z"/><path class="d" d="M5.03,4.25c0-.27,0-.54,0-.8,0-.05.03-.09.06-.13.07-.11.15-.19.27-.25,0,.12,0,.23,0,.35,0,.03-.01.04-.04.05-.16.05-.23.18-.21.35.06-.07.11-.14.19-.18.04-.02.06-.03.06.03,0,.09,0,.19,0,.28,0,.02,0,.04-.02.05-.12.04-.21.13-.29.23,0,0,0,0-.01,0h0Z"/><path class="d" d="M5.7,4.6s0,.05,0,.08c0,.51,0,1.03,0,1.54,0,.03,0,.05,0,.08,0-.06,0-.13.06-.18.04-.04.08-.05.13-.03.04.02.06.05.06.1,0,.2,0,.41,0,.61,0,.02,0,.05.01.07-.08.06-.18.1-.26.14-.02,0-.01-.02-.01-.02,0-.79,0-1.57,0-2.36,0-.01,0-.03,0-.04h0Z"/><path class="d" d="M5.36,4.13c0,.1,0,.19,0,.28,0,.04,0,.06-.05.07-.16.07-.22.18-.21.37.06-.08.12-.14.2-.18.05-.02.06-.02.05.03,0,.09,0,.18,0,.26,0,.02,0,.04-.02.05-.13.04-.22.14-.29.24-.02,0-.01-.03-.01-.04,0-.23,0-.47,0-.7,0-.04.01-.08.03-.11.07-.11.16-.22.29-.28h0Z"/><path class="d" d="M4.36,5.26c-.05-.07-.1-.12-.16-.17-.02-.02-.05-.05-.08-.06-.09-.02-.1-.08-.09-.16,0-.06,0-.13,0-.19,0-.04.01-.04.05-.03.09.04.15.1.2.17.02-.16-.03-.25-.19-.34-.05-.03-.06-.05-.06-.1,0-.07,0-.14,0-.22,0-.03.01-.04.04-.02.15.11.29.23.29.44,0,.2,0,.4,0,.6v.08h0Z"/><path class="d" d="M5.1,2.79c.06-.08.12-.15.2-.19.04-.02.06-.02.06.03,0,.09,0,.19,0,.28,0,.02,0,.04-.02.05-.16.07-.21.11-.31.26v-.11c0-.21,0-.42,0-.63,0-.05.01-.09.04-.13.07-.09.14-.17.24-.22.03-.02.05-.01.04.03,0,.03,0,.07,0,.1,0,.08,0,.15-.1.2-.13.05-.17.18-.16.33h0Z"/><path class="d" d="M4.36,3.19c-.09-.11-.17-.22-.31-.25-.03,0-.02-.03-.02-.04,0-.09,0-.18,0-.27,0-.05.02-.05.05-.03.09.04.15.11.2.19.04-.16-.04-.3-.2-.36-.04-.02-.06-.04-.05-.08,0-.06,0-.12,0-.18,0-.03,0-.06.04-.03.16.1.29.21.28.42,0,.21,0,.42,0,.64h0Z"/><path class="d" d="M5.36,5.13c0,.09,0,.18,0,.27,0,.03,0,.05-.04.06-.15.07-.22.18-.22.36.05-.05.08-.1.14-.13.03-.02.07-.06.11-.05.03.01,0,.07.01.1,0,0,0,0,0,0,.01.11,0,.19-.12.24-.08.04-.14.12-.21.21v-.13c0-.18,0-.35,0-.53,0-.04,0-.07.03-.1.07-.12.16-.24.3-.3h0Z"/><path class="d" d="M4.29,5.8c0-.18-.05-.28-.2-.35-.03-.01-.05-.03-.05-.07,0-.09,0-.17,0-.27.16.09.25.21.32.36,0,0,0,.02,0,.03,0,.22,0,.43,0,.65,0,0,0,.02,0,.03-.06-.07-.12-.14-.19-.19-.02-.01-.03-.03-.05-.04-.08-.02-.09-.08-.08-.14,0-.05,0-.1,0-.15,0-.05.02-.05.05-.03.07.04.14.1.2.17h0Z"/><path class="d" d="M4.36,6.85c0,.12,0,.24,0,.37,0,.04-.01.05-.05.03-.03-.01-.06-.01-.08-.02-.22-.07-.22-.08-.18-.32.08.07.17.12.24.2.02-.06.02-.11-.03-.16-.05-.04-.1-.09-.15-.14-.03-.09-.03-.18,0-.26.07.05.11.12.17.18.02-.03.01-.06.02-.09.02,0,.03.02.03.04,0,.1.02.2.02.31,0-.03,0-.06,0-.09,0-.02,0-.04.02-.04h0Z"/><path class="d" d="M4.77,3.89c0-.23,0-.46,0-.68,0-.02,0-.03.02-.04.05-.04.1-.09.15-.14v.13c0,.17,0,.34,0,.51,0,.05-.01.08-.05.11-.04.03-.07.06-.12.11h0Z"/><path class="d" d="M4.45,3s.01.01.01.01c.13.1.18.22.16.39-.02.16,0,.31,0,.49-.05-.06-.1-.1-.14-.14-.02-.01-.03-.03-.03-.05,0-.23,0-.45,0-.69h0Z"/><path class="d" d="M5.06,7.26s-.03-.01-.03-.03c0-.27,0-.54,0-.81,0-.03.02-.05.03-.08.07-.12.16-.22.29-.3,0,.1,0,.19,0,.28,0,.03-.02.03-.04.04-.1.05-.18.13-.21.24-.04.06-.04.13-.02.2.02.07.02.14,0,.21,0,.03,0,.07,0,.1-.02.03-.02.05-.02.08,0,.02,0,.04-.01.06h0Z"/><path class="d" d="M4.62,4.88c-.05-.06-.09-.11-.14-.14-.02-.01-.03-.03-.03-.05,0-.22,0-.43,0-.65.06.05.11.1.16.15.01.01.01.02.01.04v.66h0Z"/><path class="d" d="M4.93,2.09v.63s0,.04-.03.05c-.05.03-.09.07-.14.12,0-.18,0-.35,0-.51,0-.1.01-.18.1-.24.02-.01.04-.04.05-.06h.02s0,0,0,0Z"/><path class="d" d="M4.93,5.03c0,.22,0,.42,0,.63,0,.04,0,.06-.04.08-.05.03-.08.07-.12.11-.02,0-.01-.03-.01-.04,0-.19,0-.37,0-.56,0-.03,0-.06.03-.09.04-.04.08-.09.13-.14h0Z"/><path class="d" d="M4.61,5.85s-.04-.07-.08-.09c-.07-.04-.08-.09-.08-.17,0-.18,0-.37,0-.55.05.05.11.1.16.15.01.01,0,.02,0,.04,0,.2,0,.4,0,.6,0,0,0,.02-.01.02h0Z"/><path class="d" d="M4.77,4.88c0-.23,0-.44,0-.66,0-.02,0-.04.02-.05.05-.05.09-.09.15-.15,0,.04,0,.07,0,.11,0,.18,0,.35,0,.53,0,.04-.01.08-.05.1-.04.03-.08.06-.12.12h0Z"/><path class="d" d="M4.47,2.07c.05.05.09.1.14.15.01.01.01.02.01.04v.61c-.05-.06-.09-.1-.15-.13-.02,0-.03-.02-.03-.04,0-.21,0-.41,0-.62,0,0,.01,0,.02-.01h0Z"/><path class="d" d="M4.36,6.85s0,.1-.02.16c0-.12-.04-.22-.03-.32,0-.02,0-.04-.01-.05,0-.13-.09-.21-.19-.28-.06-.03-.07-.07-.06-.13.05-.04.1-.04.16-.05.09.09.16.19.16.33,0,.11,0,.23,0,.34h0Z"/><path class="d" d="M5.08,7.01c.01-.11-.02-.21-.03-.31,0-.04.01-.08.05-.1,0,.05-.02.11,0,.18.06-.12.14-.2.26-.25v.25s0,.02-.02.03c-.11.04-.17.14-.26.21h0Z"/><path class="d" d="M4.29,1.91s0-.05,0-.07c0-.02-.02-.03,0-.05.02,0,.04-.01.06,0,.02,0,.01.03.01.04,0,.13,0,.26,0,.39-.03,0-.03-.02-.04-.03-.07-.08-.15-.15-.25-.18-.06-.02-.03-.07-.03-.11,0-.03.02-.04.04-.05.09-.04.15,0,.21.06Z"/><path class="d" d="M5.03,2.23c0-.15,0-.28,0-.42,0-.02,0-.04.03-.03.02,0,.05,0,.04.04,0,.03,0,.06-.01.08.02,0,.03-.01.04-.02.06-.07.13-.04.2-.03.02,0,.03.01.02.03,0,.04.02.09-.03.11-.12.05-.21.12-.3.23h0Z"/><path class="d" d="M4.62,6.17v.61c-.04-.07-.09-.1-.14-.14-.02-.01-.02-.02-.02-.04,0-.15,0-.31,0-.46.04.02.03.06.03.09,0,.05.03.08.07.1.03.01.04,0,.04-.03,0-.03,0-.06,0-.09,0-.02,0-.05.03-.05h0Z"/><path class="d" d="M5.06,7.26s0-.07-.01-.1c0-.03,0-.04.04-.04.03.02.04-.02.05-.03.06-.06.13-.12.22-.18,0,.09,0,.16,0,.24,0,.02-.01.03-.03.03-.09.02-.18.05-.27.07h0Z"/><path class="d" d="M4.92,6.35c0,.09,0,.18,0,.26,0,.02,0,.03-.02.04-.05.04-.09.08-.14.13v-.39s.09-.07.15-.04h0Z"/><path class="d" d="M4.92,6.35c-.06,0-.1.04-.15.04,0-.02,0-.05,0-.07-.04-.15.08-.22.15-.32,0,0,0,0,.01,0,0,0,0,0,0,0-.01.06,0,.12,0,.17,0,.06,0,.11,0,.17h0Z"/><path class="d" d="M4.62,6.17c-.03.06,0,.13-.02.21-.04-.02-.08-.04-.12-.06-.03-.01-.02-.03-.03-.05,0-.04,0-.08,0-.12v-.16c.06.07.13.11.17.19h0Z"/><path class="d" d="M4.11,6.55v.26c-.05,0-.07-.03-.07-.09,0-.07,0-.14,0-.21.03,0,.05.02.07.04h0Z"/><path class="d" d="M4.2,6.18s-.1.04-.16.05v-.18c.06.04.11.08.16.13h0Z"/><path class="d" d="M4.93,6.18c0-.06,0-.12,0-.17,0,.06,0,.12,0,.17Z"/><path class="d" d="M1.7,6.81c-.05.12-.05.12-.14.02.02,0,.04,0,.07,0,.02,0,.04,0,.07-.01h0Z"/><path class="c" d="M6.43,4.08c-.12-.45-.24-.9-.36-1.35-.04-.14-.03-.28-.03-.44.11.07.21.15.3.22.14.12.26.25.37.39.03.04.04.08.02.13-.1.33-.19.65-.28.98,0,.02,0,.04-.03.06h0Z"/><path class="c" d="M2.95,4.09c-.08-.28-.15-.53-.23-.79-.03-.1-.06-.2-.09-.3,0-.02-.01-.03,0-.05.19-.26.41-.48.69-.66,0,.17.01.34-.03.5-.12.43-.23.85-.35,1.3h0Z"/><path class="c" d="M13.65,6.43h-.92v-3.56h-1.17v-.76h3.26v.76h-1.17v3.56Z"/><path class="c" d="M17.26,3.07c.12,0,.22,0,.3.03l-.07.85c-.07-.02-.16-.03-.27-.03-.29,0-.51.07-.67.22-.16.15-.24.35-.24.62v1.68h-.9v-3.31h.68l.13.56h.04c.1-.19.24-.33.42-.45.17-.11.36-.17.57-.17Z"/><path class="c" d="M18.13,2.27c0-.29.16-.44.49-.44s.49.15.49.44c0,.14-.04.25-.12.33-.08.08-.2.12-.37.12-.33,0-.49-.15-.49-.44ZM19.07,6.43h-.9v-3.31h.9v3.31Z"/><path class="c" d="M21.83,6.49c-.39,0-.69-.14-.91-.42h-.05c.03.28.05.44.05.48v1.34h-.9V3.13h.73l.13.43h.04c.21-.33.52-.49.94-.49.39,0,.7.15.92.45.22.3.33.72.33,1.26,0,.35-.05.66-.16.92-.1.26-.25.46-.44.59-.19.14-.42.2-.67.2ZM21.57,3.79c-.22,0-.39.07-.49.21-.1.14-.16.36-.16.68v.1c0,.35.05.61.16.76s.27.23.5.23c.4,0,.61-.33.61-1,0-.33-.05-.57-.15-.73-.1-.16-.26-.24-.47-.24Z"/><path class="c" d="M24.75,6.43h-.9V1.83h.9v4.6Z"/><path class="c" d="M27.19,6.49c-.53,0-.95-.15-1.25-.44-.3-.29-.45-.71-.45-1.25s.14-.98.42-1.28c.28-.3.66-.45,1.15-.45s.83.13,1.09.4c.26.27.39.63.39,1.1v.44h-2.13c0,.26.09.46.23.6s.34.22.6.22c.2,0,.39-.02.56-.06.18-.04.36-.11.56-.2v.7c-.16.08-.33.14-.51.18-.18.04-.4.06-.66.06ZM27.07,3.71c-.19,0-.34.06-.45.18-.11.12-.17.29-.19.52h1.27c0-.22-.06-.39-.17-.52-.11-.12-.26-.18-.46-.18Z"/><path class="c" d="M32.75,6.43l-1.04-3.39h-.03c.04.69.06,1.15.06,1.38v2.01h-.82V2.11h1.25l1.02,3.31h.02l1.09-3.31h1.25v4.32h-.85v-2.05c0-.1,0-.21,0-.33,0-.13.02-.46.04-1.01h-.03l-1.11,3.39h-.84Z"/></svg>