<?xml version="1.0" encoding="utf-8"?>
<!-- Generator: Adobe Illustrator 28.2.0, SVG Export Plug-In . SVG Version: 6.00 Build 0)  -->
<svg version="1.1" id="Layer_1" xmlns="http://www.w3.org/2000/svg" xmlns:xlink="http://www.w3.org/1999/xlink" x="0px" y="0px"
	 viewBox="0 0 182 40" style="enable-background:new 0 0 182 40;" xml:space="preserve">
<style type="text/css">
	.st0{fill:#FFFFFF;}
	.st1{display:none;fill:#EB3300;}
	.st2{fill:#1F2022;}
	.st3{fill:#7EBAB5;}
</style>
<path class="st0" d="M72.1,35l-6.9-22.4H65c0,0.5,0.1,1.3,0.1,2.4c0.1,1.1,0.1,2.2,0.2,3.4s0.1,2.3,0.1,3.3V35H60V6.4h8.2L75,28.3
	h0.1l7.2-21.8h8.2V35h-5.6V21.5c0-0.9,0-1.9,0-3.1s0.1-2.3,0.1-3.3c0.1-1.1,0.1-1.9,0.1-2.4H85L77.6,35H72.1z M106.2,12.7
	c2.9,0,5.2,0.6,6.7,1.9c1.6,1.3,2.3,3.2,2.3,5.8V35H111l-1.2-3h-0.2c-0.6,0.8-1.3,1.4-1.9,1.9s-1.4,0.9-2.2,1.1
	c-0.8,0.2-1.9,0.4-3.1,0.4c-1.3,0-2.4-0.2-3.5-0.7c-1-0.5-1.8-1.2-2.4-2.3c-0.6-1-0.9-2.3-0.9-3.9c0-2.3,0.8-4,2.4-5.1
	s4.1-1.7,7.3-1.8l3.8-0.1v-1c0-1.1-0.3-2-0.9-2.5s-1.4-0.8-2.5-0.8s-2.1,0.1-3.1,0.4s-2,0.7-3,1.1l-2-4c1.2-0.6,2.5-1.1,3.9-1.4
	C103.2,12.9,104.7,12.7,106.2,12.7z M109.4,24.9l-2.3,0.1c-1.9,0.1-3.3,0.4-4,1s-1.1,1.5-1.1,2.5c0,0.9,0.3,1.6,0.8,2
	s1.2,0.6,2.1,0.6c1.3,0,2.4-0.4,3.2-1.1c0.9-0.8,1.3-1.8,1.3-3.2V24.9z M127.4,35h-6V4.6h6V35z M142.7,12.8c2,0,3.8,0.4,5.2,1.2
	c1.5,0.8,2.6,1.9,3.4,3.4c0.8,1.5,1.2,3.3,1.2,5.4v2.9h-14.1c0.1,1.7,0.6,3,1.5,4s2.3,1.4,3.9,1.4c1.4,0,2.7-0.1,3.8-0.4
	c1.2-0.3,2.4-0.7,3.6-1.3V34c-1.1,0.5-2.2,0.9-3.4,1.2c-1.2,0.2-2.6,0.4-4.3,0.4c-2.2,0-4.1-0.4-5.8-1.2s-3-2-4-3.7
	s-1.4-3.7-1.4-6.2c0-2.6,0.4-4.7,1.3-6.4c0.9-1.7,2.1-3,3.6-3.8C138.8,13.2,140.6,12.8,142.7,12.8z M142.7,17
	c-1.2,0-2.1,0.4-2.9,1.1c-0.8,0.7-1.2,1.9-1.3,3.5h8.4c0-0.9-0.2-1.7-0.5-2.4c-0.3-0.7-0.8-1.2-1.4-1.6
	C144.4,17.2,143.6,17,142.7,17z M169.7,12.8c2.3,0,4.2,0.6,5.6,1.9c1.4,1.3,2.1,3.3,2.1,6.1V35h-6V22.2c0-1.6-0.3-2.7-0.9-3.5
	c-0.6-0.8-1.4-1.2-2.7-1.2c-1.8,0-3.1,0.6-3.7,1.9s-1,3-1,5.4V35h-6V13.2h4.6l0.8,2.8h0.3c0.5-0.8,1-1.4,1.7-1.8
	c0.7-0.5,1.5-0.8,2.3-1C167.9,12.9,168.8,12.8,169.7,12.8z"/>
<path class="st1" d="M32.9,8.3c-1.9-1.2-3.9-2.1-6-2.5L25.4,0h-1.1H22h-1l-1.5,5.8c-2.1,0.4-4.2,1.3-6,2.5l-5.1-3L7.6,6L6,7.7
	L5.2,8.4l3,5.2c-1.2,1.9-2.1,4-2.5,6.1L0,21.2v1.1v2.3v1.1l5.8,1.5c0.3,1.5,0.8,3,1.5,4.3c0.6,1.2,0.5,2.5-0.1,3.7l-1.9,3.3L6,39.2
	L6.8,40l5.7-5.8c1.2-1.2,1.4-3,0.5-4.4c-2.9-4.7-2.3-11,1.9-15.1c4.6-4.4,11.9-4.4,16.5,0c4.2,4,4.8,10.3,1.9,15.1
	c-0.9,1.4-0.6,3.3,0.5,4.4l5.7,5.8l0.8-0.8l0.7-0.8l-1.9-3.3c-0.7-1.1-0.7-2.5-0.1-3.7c0.7-1.4,1.2-2.8,1.5-4.3l5.8-1.5v-1.1v-2.3
	v-1.1l-5.8-1.5c-0.4-2.1-1.3-4.2-2.5-6.1l3-5.2l-0.7-0.8L38.8,6L38,5.3L32.9,8.3z"/>
<path class="st0" d="M26.1,31.8v-3.2l0,0c0-0.5,0.1-0.8,0.6-1c4.6-2.1,3-8.6-0.8-10.6c-0.3,1.5-0.1,3.2-0.2,4.8c-1.6,0-3.2,0-4.9,0
	c0.1-1.5,0-3,0-4.5c0-0.7-0.8,0.1-1.1,0.2c-2.3,2.1-4,6.3-1.6,8.9c0.5,0.7,2.1,1.3,2.2,2c0,0.1,0,0.2,0,0.3v3.2
	c-4.3,0.9-7.9,4-9.6,8.1h6.9c1.4-1.5,3.4-2.4,5.6-2.4s4.2,0.9,5.6,2.4h6.9C33.9,35.8,30.4,32.7,26.1,31.8z"/>
<g>
	<g>
		<path class="st2" d="M38.1,20.8c-0.2,5.5-2.5,9.7-7.1,12.7c-2.4,1.5-5,2.4-7.8,2.3c-4.3,0-7.9-1.7-10.8-4.8
			c-2-2.2-3.4-4.7-3.8-7.6c-0.9-5.9,0.8-10.9,5.5-14.7c2.8-2.2,6-3.3,9.6-3.2c2.8,0.1,5.3,1,7.5,2.5c3.8,2.5,6,6.1,6.6,10.6
			C38,19.3,38,20,38.1,20.8L38.1,20.8z"/>
	</g>
	<g>
		<path class="st3" d="M27.9,21.2v-12c0.1-0.1,0.1,0,0.2,0c2.2,1.1,4.1,2.6,5.5,4.7c0.9,1.4,1.4,3,1.5,4.6c0.1,1.9,0.1,3.7-0.2,5.6
			c-0.2,1.3-0.7,2.5-1.5,3.7v-9.5c0,0,0,0-0.1,0c-0.6,2-1.2,4-1.9,6.1c-0.7-2-1.3-4-1.9-6c0,0.3,0,0.6,0,0.8c0,4,0,8.1,0,12.1
			c0,0.3-0.1,0.4-0.3,0.5C29,31.7,29,31.6,29,31.4c0-0.8,0-1.6,0-2.4c0-0.1,0-0.2,0-0.3c0-0.2-0.1-0.3-0.3-0.4
			c-0.2-0.1-0.3,0-0.5,0.2c-0.1,0.1-0.1,0.3-0.2,0.4c0,0.1,0,0.2-0.1,0.3c-0.1-0.1,0-0.2,0-0.3c0-2.4,0-4.9,0-7.3
			C27.9,21.4,27.9,21.3,27.9,21.2L27.9,21.2z"/>
		<path class="st3" d="M17.2,31.8c-0.2-0.1-0.3-0.2-0.3-0.5c0-4.3,0-8.6,0-12.9c-0.6,2-1.2,4-1.8,5.9c-0.8-2-1.3-4-2-6
			c0,3.2-0.1,6.3,0,9.5c-0.5-0.6-0.8-1.3-1-2c-0.4-1-0.6-2-0.6-3.1c0-1.3,0-2.6,0-3.9c0-1.9,0.7-3.6,1.7-5.2c1.3-2,3.1-3.4,5.3-4.4
			c0,0,0,0,0.1,0c0.1,0.1,0,0.2,0,0.3c0,6.5,0,12.9,0,19.4c0,0.1,0,0.2-0.1,0.3c-0.1-0.1-0.1-0.2-0.2-0.3c-0.1-0.5-0.3-0.6-0.6-0.6
			c-0.2,0-0.3,0.3-0.3,0.7c0,0.8,0,1.6,0,2.4C17.4,31.5,17.4,31.7,17.2,31.8L17.2,31.8z"/>
		<path class="st3" d="M17.2,31.8c0.1-0.1,0.1-0.2,0.1-0.3c0-0.8,0-1.7,0-2.5c0-0.2,0-0.3,0.1-0.5c0-0.1,0.1-0.3,0.3-0.3
			c0.2,0,0.4,0,0.6,0.2s0.2,0.5,0.3,0.8c0-0.2,0-0.3,0-0.5c0-6.4,0-12.8,0-19.1c0-0.1,0-0.2,0-0.3c0.1,0.1,0.1,0.2,0.1,0.3
			c0,6.5,0,13,0,19.6c0,1.2,0,2.3,0,3.5C18,32.3,17.6,32.1,17.2,31.8L17.2,31.8z"/>
		<path class="st3" d="M21.3,17.6c0.1-0.9-0.3-1.5-1.1-1.8c-0.1,0-0.1-0.1-0.1-0.2c0-0.5,0-1.1,0-1.6c0.4,0.2,0.7,0.4,1,0.8
			c0.4,0.5,0.6,0.9,0.6,1.6c-0.1,1.1,0,2.1,0,3.3c-0.2-0.2-0.4-0.4-0.6-0.6s-0.4-0.4-0.8-0.5c-0.1,0-0.2-0.1-0.2-0.2
			c0-0.5,0-1,0-1.4c0-0.2,0.1-0.1,0.2-0.1C20.7,16.9,21,17.3,21.3,17.6L21.3,17.6z"/>
		<path class="st3" d="M24.8,19.6c0-1.3,0-2.5,0-3.7c0-0.2,0.1-0.4,0.3-0.6c0.3-0.5,0.7-0.9,1.3-1.2c0,0.6,0,1.1,0,1.6
			c0,0.1-0.1,0.2-0.2,0.2c-0.7,0.2-1.1,0.8-1,1.6c0.3-0.3,0.5-0.6,0.9-0.8c0.2-0.1,0.3-0.1,0.3,0.2c0,0.4,0,0.9,0,1.3
			c0,0.1,0,0.2-0.1,0.2C25.6,18.7,25.2,19.1,24.8,19.6L24.8,19.6L24.8,19.6z"/>
		<path class="st3" d="M27.9,21.2c0.1,0.1,0,0.2,0,0.4c0,2.4,0,4.8,0,7.2c0,0.1,0,0.3,0,0.4c0-0.3,0-0.6,0.3-0.8
			c0.2-0.2,0.4-0.2,0.6-0.1s0.3,0.2,0.3,0.5c0,0.9,0,1.9,0,2.8c0,0.1,0,0.2,0.1,0.3c-0.4,0.3-0.8,0.4-1.2,0.7
			c-0.1,0-0.1-0.1-0.1-0.1c0-3.7,0-7.3,0-11C27.9,21.3,27.9,21.3,27.9,21.2L27.9,21.2z"/>
		<path class="st3" d="M26.3,19c0,0.5,0,0.9,0,1.3c0,0.2,0,0.3-0.2,0.3c-0.7,0.3-1,0.9-1,1.7c0.3-0.4,0.6-0.7,1-0.9
			c0.2-0.1,0.3-0.1,0.2,0.2c0,0.4,0,0.8,0,1.2c0,0.1,0,0.2-0.1,0.2c-0.6,0.2-1,0.6-1.4,1.1c-0.1,0-0.1-0.1-0.1-0.2
			c0-1.1,0-2.2,0-3.2c0-0.2,0.1-0.4,0.2-0.5C25.2,19.8,25.6,19.3,26.3,19L26.3,19z"/>
		<path class="st3" d="M21.6,24.3c-0.2-0.3-0.5-0.6-0.7-0.8c-0.1-0.1-0.2-0.2-0.4-0.3c-0.4-0.1-0.5-0.4-0.4-0.7c0-0.3,0-0.6,0-0.9
			c0-0.2,0.1-0.2,0.2-0.1c0.4,0.2,0.7,0.5,1,0.8c0.1-0.7-0.1-1.2-0.9-1.6c-0.2-0.1-0.3-0.2-0.3-0.5s0-0.7,0-1c0-0.2,0.1-0.2,0.2-0.1
			c0.7,0.5,1.4,1,1.3,2c0,0.9,0,1.9,0,2.8C21.6,24,21.6,24.1,21.6,24.3L21.6,24.3z"/>
		<path class="st3" d="M25.1,12.8c0.3-0.4,0.5-0.7,0.9-0.9c0.2-0.1,0.3-0.1,0.3,0.2c0,0.4,0,0.9,0,1.3c0,0.1,0,0.2-0.1,0.2
			c-0.7,0.3-1,0.5-1.4,1.2c0-0.2,0-0.4,0-0.5c0-1,0-1.9,0-2.9c0-0.2,0.1-0.4,0.2-0.6c0.3-0.4,0.6-0.8,1.1-1c0.1-0.1,0.2-0.1,0.2,0.1
			c0,0.2,0,0.3,0,0.5c0,0.4,0,0.7-0.5,0.9C25.2,11.5,25,12.1,25.1,12.8L25.1,12.8z"/>
		<path class="st3" d="M21.6,14.7c-0.4-0.5-0.8-1-1.4-1.2c-0.1,0-0.1-0.1-0.1-0.2c0-0.4,0-0.8,0-1.3c0-0.2,0.1-0.2,0.2-0.1
			c0.4,0.2,0.7,0.5,0.9,0.9c0.2-0.7-0.2-1.4-0.9-1.7C20.1,11,20,10.9,20,10.7c0-0.3,0-0.6,0-0.9c0-0.2,0-0.3,0.2-0.1
			c0.7,0.5,1.3,1,1.3,2C21.6,12.7,21.6,13.7,21.6,14.7L21.6,14.7z"/>
		<path class="st3" d="M26.3,23.7c0,0.4,0,0.8,0,1.2c0,0.1,0,0.2-0.2,0.3c-0.7,0.3-1,0.8-1,1.7c0.2-0.2,0.4-0.5,0.6-0.6
			s0.3-0.3,0.5-0.2c0.1,0.1,0,0.3,0.1,0.5l0,0c0.1,0.5,0,0.9-0.5,1.1c-0.4,0.2-0.6,0.6-1,1c0-0.2,0-0.4,0-0.6c0-0.8,0-1.6,0-2.5
			c0-0.2,0-0.3,0.1-0.5C25.2,24.5,25.6,24,26.3,23.7L26.3,23.7z"/>
		<path class="st3" d="M21.3,26.8c0-0.8-0.2-1.3-0.9-1.6c-0.2-0.1-0.2-0.1-0.2-0.3c0-0.4,0-0.8,0-1.3c0.7,0.4,1.1,1,1.5,1.7
			c0,0,0,0.1,0,0.2c0,1,0,2,0,3v0.1c-0.3-0.3-0.6-0.6-0.9-0.9c-0.1-0.1-0.2-0.2-0.2-0.2c-0.4-0.1-0.4-0.4-0.4-0.7c0-0.2,0-0.5,0-0.7
			s0.1-0.2,0.2-0.1C20.7,26.2,21,26.5,21.3,26.8L21.3,26.8z"/>
		<path class="st3" d="M21.6,31.7c0,0.6,0,1.1,0,1.7c0,0.2,0,0.2-0.2,0.2c-0.1,0-0.3-0.1-0.4-0.1c-1-0.3-1-0.4-0.9-1.5
			c0.4,0.3,0.8,0.5,1.1,0.9c0.1-0.3,0.1-0.5-0.1-0.7s-0.5-0.4-0.7-0.6c-0.2-0.4-0.2-0.8,0-1.2c0.3,0.2,0.5,0.5,0.8,0.9
			c0.1-0.1,0.1-0.3,0.1-0.4c0.1,0,0.1,0.1,0.1,0.2c0,0.5,0.1,0.9,0.1,1.4c0-0.1,0-0.3,0-0.4C21.5,31.8,21.5,31.7,21.6,31.7
			L21.6,31.7z"/>
		<path class="st3" d="M23.5,17.9c0-1.1,0-2.1,0-3.2c0-0.1,0-0.1,0.1-0.2c0.2-0.2,0.4-0.4,0.7-0.6c0,0.2,0,0.4,0,0.6
			c0,0.8,0,1.6,0,2.4c0,0.2-0.1,0.4-0.2,0.5C23.9,17.6,23.7,17.7,23.5,17.9L23.5,17.9z"/>
		<path class="st3" d="M22.1,13.8L22.1,13.8c0.7,0.5,0.9,1.1,0.8,1.9c-0.1,0.7,0,1.5,0,2.3c-0.2-0.3-0.4-0.5-0.7-0.7
			c-0.1-0.1-0.1-0.1-0.1-0.2C22.1,16,22.1,14.9,22.1,13.8L22.1,13.8z"/>
		<path class="st3" d="M24.9,33.6c-0.1,0-0.1-0.1-0.1-0.1c0-1.3,0-2.5,0-3.8c0-0.1,0.1-0.2,0.2-0.4c0.3-0.6,0.7-1,1.3-1.4
			c0,0.5,0,0.9,0,1.3c0,0.1-0.1,0.2-0.2,0.2c-0.5,0.2-0.8,0.6-1,1.1c-0.2,0.3-0.2,0.6-0.1,0.9s0.1,0.7,0,1c0,0.2,0,0.3,0,0.5
			c-0.1,0.1-0.1,0.2-0.1,0.4C24.9,33.4,24.9,33.5,24.9,33.6L24.9,33.6z"/>
		<path class="st3" d="M22.8,22.5c-0.2-0.3-0.4-0.5-0.7-0.7C22,21.7,22,21.7,22,21.6c0-1,0-2,0-3c0.3,0.2,0.5,0.5,0.7,0.7
			c0.1,0,0.1,0.1,0.1,0.2C22.8,20.5,22.8,21.4,22.8,22.5L22.8,22.5z"/>
		<path class="st3" d="M24.3,9.5c0,1,0,1.9,0,2.9c0,0.1,0,0.2-0.1,0.2c-0.2,0.1-0.4,0.3-0.7,0.5c0-0.8,0-1.6,0-2.4
			c0-0.5,0.1-0.8,0.5-1.1C24.1,9.7,24.1,9.6,24.3,9.5L24.3,9.5L24.3,9.5z"/>
		<path class="st3" d="M24.3,23.2c0,1,0,2,0,2.9c0,0.2,0,0.3-0.2,0.4s-0.4,0.3-0.6,0.5c-0.1,0-0.1-0.1-0.1-0.2c0-0.9,0-1.7,0-2.6
			c0-0.2,0-0.3,0.2-0.4C23.9,23.6,24.1,23.4,24.3,23.2L24.3,23.2z"/>
		<path class="st3" d="M22.8,27c-0.1-0.1-0.2-0.3-0.4-0.4c-0.3-0.2-0.4-0.4-0.4-0.8c0-0.9,0-1.7,0-2.6c0.3,0.2,0.5,0.5,0.7,0.7
			c0.1,0,0,0.1,0,0.2C22.8,25.1,22.8,26,22.8,27L22.8,27L22.8,27z"/>
		<path class="st3" d="M23.5,22.5c0-1.1,0-2.1,0-3c0-0.1,0-0.2,0.1-0.2c0.2-0.2,0.4-0.4,0.7-0.7c0,0.2,0,0.3,0,0.5
			c0,0.8,0,1.6,0,2.5c0,0.2,0,0.4-0.2,0.5C23.9,22.1,23.7,22.3,23.5,22.5L23.5,22.5z"/>
		<path class="st3" d="M22.1,9.5c0.2,0.2,0.4,0.5,0.6,0.7c0,0.1,0.1,0.1,0.1,0.2c0,0.9,0,1.8,0,2.8c-0.2-0.3-0.4-0.5-0.7-0.6
			c-0.1,0-0.1-0.1-0.1-0.2C22.1,11.4,22.1,10.5,22.1,9.5L22.1,9.5L22.1,9.5z"/>
		<path class="st3" d="M21.6,31.7c-0.1,0.2,0,0.5-0.1,0.7c0-0.5-0.2-1-0.1-1.5c0-0.1,0-0.2-0.1-0.2c0-0.6-0.4-1-0.9-1.3
			c-0.3-0.2-0.3-0.3-0.3-0.6c0.2-0.2,0.5-0.2,0.7-0.2c0.4,0.4,0.8,0.9,0.7,1.5C21.6,30.6,21.6,31.2,21.6,31.7L21.6,31.7z"/>
		<path class="st3" d="M25,32.4c0.1-0.5-0.1-1-0.1-1.5c0-0.2,0.1-0.3,0.2-0.4c0,0.2-0.1,0.5,0,0.8c0.3-0.5,0.6-0.9,1.2-1.2
			c0,0.4,0,0.8,0,1.2c0,0.1,0,0.1-0.1,0.1C25.7,31.7,25.4,32.1,25,32.4L25,32.4z"/>
		<path class="st3" d="M21.3,8.7c0.1-0.1,0-0.2,0-0.3s-0.1-0.2,0-0.2s0.2-0.1,0.3,0c0.1,0,0.1,0.1,0.1,0.2c0,0.6,0,1.2,0,1.8
			c-0.1,0-0.1-0.1-0.2-0.1c-0.3-0.4-0.7-0.7-1.2-0.9C20,9,20.2,8.8,20.1,8.7c0-0.2,0.1-0.2,0.2-0.2C20.7,8.2,21,8.4,21.3,8.7z"/>
		<path class="st3" d="M24.7,10.2c0-0.7,0-1.3,0-2c0-0.1,0-0.2,0.2-0.1c0.1,0,0.2,0,0.2,0.2c0,0.1,0,0.3-0.1,0.4
			c0.1,0,0.1-0.1,0.2-0.1c0.3-0.3,0.6-0.2,0.9-0.1c0.1,0,0.1,0.1,0.1,0.1c0,0.2,0.1,0.4-0.1,0.5C25.6,9.4,25.1,9.7,24.7,10.2
			L24.7,10.2z"/>
		<path class="st3" d="M22.8,28.5v2.9c-0.2-0.3-0.4-0.5-0.7-0.6C22,30.7,22,30.7,22,30.6c0-0.7,0-1.4,0-2.1c0.2,0.1,0.1,0.3,0.1,0.4
			c0,0.2,0.1,0.4,0.3,0.5c0.1,0.1,0.2,0,0.2-0.1s0-0.3,0-0.4C22.7,28.7,22.7,28.5,22.8,28.5L22.8,28.5z"/>
		<path class="st3" d="M24.9,33.6c0-0.2,0-0.3-0.1-0.5c0-0.1,0-0.2,0.2-0.2c0.1,0.1,0.2-0.1,0.2-0.1c0.3-0.3,0.6-0.6,1-0.8
			c0,0.4,0,0.8,0,1.1c0,0.1-0.1,0.1-0.1,0.2C25.7,33.3,25.3,33.5,24.9,33.6L24.9,33.6z"/>
		<path class="st3" d="M24.2,29.4c0,0.4,0,0.8,0,1.2c0,0.1,0,0.1-0.1,0.2c-0.2,0.2-0.4,0.4-0.7,0.6v-1.8
			C23.7,29.4,24,29.2,24.2,29.4L24.2,29.4z"/>
		<path class="st3" d="M24.2,29.4c-0.3,0-0.5,0.2-0.7,0.2c0-0.1,0-0.2,0-0.3c-0.2-0.7,0.4-1,0.7-1.5c0,0,0,0,0.1,0l0,0
			c-0.1,0.3,0,0.5,0,0.8C24.3,28.8,24.3,29.1,24.2,29.4L24.2,29.4z"/>
		<path class="st3" d="M22.8,28.5c-0.1,0.3,0,0.6-0.1,1c-0.2-0.1-0.4-0.2-0.5-0.3c-0.1-0.1-0.1-0.1-0.1-0.2c0-0.2,0-0.4,0-0.6v-0.8
			C22.3,28,22.7,28.1,22.8,28.5L22.8,28.5z"/>
		<path class="st3" d="M20.5,30.3c0,0.4,0,0.8,0,1.2c-0.2,0-0.3-0.2-0.3-0.4c0-0.3,0-0.6,0-1C20.3,30.1,20.4,30.2,20.5,30.3
			L20.5,30.3z"/>
		<path class="st3" d="M20.9,28.6c-0.2,0.2-0.5,0.2-0.7,0.2V28C20.4,28.1,20.7,28.3,20.9,28.6L20.9,28.6z"/>
		<path class="st3" d="M24.3,28.6c0-0.3,0-0.5,0-0.8C24.3,28,24.3,28.3,24.3,28.6z"/>
	</g>
	<g>
		<path class="st2" d="M31.3,18.8c-0.6-2.1-1.1-4.2-1.7-6.3c-0.2-0.6-0.1-1.3-0.1-2c0.5,0.3,1,0.7,1.4,1c0.6,0.5,1.2,1.1,1.7,1.8
			c0.1,0.2,0.2,0.4,0.1,0.6c-0.4,1.5-0.9,3-1.3,4.6C31.4,18.6,31.4,18.7,31.3,18.8L31.3,18.8z"/>
		<path class="st2" d="M15.1,18.9c-0.4-1.3-0.7-2.5-1.1-3.7c-0.1-0.5-0.3-0.9-0.4-1.4c0-0.1,0-0.2,0-0.3c0.9-1.2,1.9-2.2,3.2-3.1
			c0,0.8,0.1,1.6-0.2,2.3C16.2,14.8,15.6,16.8,15.1,18.9L15.1,18.9z"/>
	</g>
</g>
</svg>
